# xmcd
#
# Track frame offsets:
#	150
#	10242
#	16165
#	23798
#	34905
#	45051
#	56487
#	64700
#	72052
#	82659
#	91384
#	103431
#	111046
#	122056
#	131222
#	140120
#	150719
#	158284
#
# Disc length: 2225 seconds
#
# Revision: 0
# Processed by: cddbd v1.5.1PL2 Copyright (c) Steve Scherf et al.
# Submitted via: dBpowerAMP V4.0
#
DISCID=de08af12
DTITLE=Jim Reeves - Peace In The Valley
DYEAR=2004
DGENRE=Country
TTITLE0=He'll Have To Go
TTITLE1=Have I Told You Lately That I Love You
TTITLE2=I Know One
TTITLE3=Am I Losing You
TTITLE4=Anna Marie
TTITLE5=I Love You More
TTITLE6=Waiting For A Train
TTITLE7=Blue Boy
TTITLE8=I Missed Me
TTITLE9=According To My Heart
TTITLE10=Four Walls
TTITLE11=Bimbo
TTITLE12=When God Dips His Love Into My Heart
TTITLE13=Billy Bayou
TTITLE14=I'd Like To Be
TTITLE15=Peace In The Valley
TTITLE16=In A Mansion Stands My Love
TTITLE17=Youder Comes A Sucker
EXTD=
EXTT0=
EXTT1=
EXTT2=
EXTT3=
EXTT4=
EXTT5=
EXTT6=
EXTT7=
EXTT8=
EXTT9=
EXTT10=
EXTT11=
EXTT12=
EXTT13=
EXTT14=
EXTT15=
EXTT16=
EXTT17=
PLAYORDER=
